HIERARCHY
ROOT Hips
{
 OFFSET 0.000000 0.000000 0.000000
 CHANNELS 6 Xposition Yposition Zposition Yrotation Xrotation Zrotation
 JOINT Chest
 {
  OFFSET 0.000000 9.585900 0.002600
  CHANNELS 3 Yrotation Xrotation Zrotation
  JOINT Chest2
  {
   OFFSET 0.000000 9.601200 -0.005300
   CHANNELS 3 Yrotation Xrotation Zrotation
   JOINT Chest3
   {
    OFFSET 0.000000 9.561800 0.000000
    CHANNELS 3 Yrotation Xrotation Zrotation
    JOINT Chest4
    {
     OFFSET 0.000000 9.552100 0.000000
     CHANNELS 3 Yrotation Xrotation Zrotation
     JOINT Neck
     {
      OFFSET 0.000000 14.453000 0.000000
      CHANNELS 3 Yrotation Xrotation Zrotation
      JOINT Head
      {
       OFFSET 0.000000 8.936500 -0.011300
       CHANNELS 3 Yrotation Xrotation Zrotation
       End Site
       {
        OFFSET 0.000000 17.073600 -0.006000
       }
      }
     }
     JOINT RightCollar
     {
      OFFSET -2.921100 9.558500 0.000000
      CHANNELS 3 Yrotation Xrotation Zrotation
      JOINT RightShoulder
      {
       OFFSET -13.519700 0.000000 0.000000
       CHANNELS 3 Yrotation Xrotation Zrotation
       JOINT RightElbow
       {
        OFFSET 0.000000 -29.696600 0.000000
        CHANNELS 3 Yrotation Xrotation Zrotation
        JOINT RightWrist
        {
         OFFSET 0.000000 -24.004700 0.000000
         CHANNELS 3 Yrotation Xrotation Zrotation
         End Site
         {
          OFFSET 0.000000 -17.728500 0.000000
         }
        }
       }
      }
     }
     JOINT LeftCollar
     {
      OFFSET 2.921100 9.558500 0.000000
      CHANNELS 3 Yrotation Xrotation Zrotation
      JOINT LeftShoulder
      {
       OFFSET 13.519700 0.000000 0.000000
       CHANNELS 3 Yrotation Xrotation Zrotation
       JOINT LeftElbow
       {
        OFFSET 0.000000 -29.696600 0.000000
        CHANNELS 3 Yrotation Xrotation Zrotation
        JOINT LeftWrist
        {
         OFFSET 0.000000 -24.004700 0.000000
         CHANNELS 3 Yrotation Xrotation Zrotation
         End Site
         {
          OFFSET 0.000000 -17.728500 0.000000
         }
        }
       }
      }
     }
    }
   }
  }
 }
 JOINT RightHip
 {
  OFFSET -7.771700 -0.012900 -0.001300
  CHANNELS 3 Yrotation Xrotation Zrotation
  JOINT RightKnee
  {
   OFFSET 0.000000 -40.869800 0.001200
   CHANNELS 3 Yrotation Xrotation Zrotation
   JOINT RightAnkle
   {
    OFFSET 0.000000 -39.717900 0.002100
    CHANNELS 3 Yrotation Xrotation Zrotation
    JOINT RightToe
    {
     OFFSET 0.000000 -4.965400 11.033500
     CHANNELS 3 Yrotation Xrotation Zrotation
     End Site
     {
      OFFSET 0.000000 -1.423100 5.872300
     }
    }
   }
  }
 }
 JOINT LeftHip
 {
  OFFSET 7.771700 -0.012900 -0.001300
  CHANNELS 3 Yrotation Xrotation Zrotation
  JOINT LeftKnee
  {
   OFFSET 0.000000 -40.869800 0.001200
   CHANNELS 3 Yrotation Xrotation Zrotation
   JOINT LeftAnkle
   {
    OFFSET 0.000000 -39.717900 0.002100
    CHANNELS 3 Yrotation Xrotation Zrotation
    JOINT LeftToe
    {
     OFFSET 0.000000 -4.965400 11.033500
     CHANNELS 3 Yrotation Xrotation Zrotation
     End Site
     {
      OFFSET 0.000000 -1.423100 5.872300
     }
    }
   }
  }
 }
}
MOTION
Frames: 12
Frame Time: 0.008333
-39.384024 50.685666 4.105890 163.705084 -6.450367 -0.896438 3.270328 6.020414 0.737421 0.120837 0.237775 -0.012675 0.211563 0.430715 -0.010567 2.841522 5.788502 0.001438 2.505462 18.877058 0.534674 4.423705 -0.718432 0.181000 3.377023 6.876617 0.860525 -7.515642 -13.299014 -6.962567 -40.113702 -76.766897 61.009669 -0.986346 2.348780 -30.091372 -5.756461 3.697709 0.054952 22.147741 -6.130172 0.569884 60.774806 -78.053841 -80.796897 0.422698 8.744233 13.367756 -3.791154 -73.958857 0.485440 -114.925585 82.025233 -114.045613 -2.875672 -14.523526 0.743503 -0.239090 0.776764 -0.105146 -13.958598 -77.297408 30.157494 109.433984 78.720520 105.864891 -16.019683 -21.072990 -0.168954 -0.342786 -0.991839 -0.136195
-39.385928 50.686994 4.105174 163.704611 -6.461263 -0.891523 3.271621 6.018510 0.722585 0.119546 0.245098 -0.006812 0.212611 0.428995 -0.011888 2.843639 5.790250 -0.001290 2.509774 18.879145 0.522851 4.423504 -0.714086 0.197291 3.370169 6.871361 0.860139 -7.512574 -13.297302 -6.957359 -40.092055 -76.765350 61.004547 -0.991271 2.350677 -30.104542 -5.753194 3.700461 0.063985 22.151656 -6.124521 0.558444 60.704021 -78.040605 -80.722009 0.416947 8.734476 13.373127 -3.777121 -73.948279 0.470049 -114.920806 82.026276 -114.038864 -2.881943 -14.518962 0.738386 -0.232033 0.773943 -0.102576 -13.889824 -77.288562 30.090473 109.443256 78.730519 105.879650 -16.019582 -21.080868 -0.162343 -0.359710 -0.981983 -0.144470
-39.388513 50.688197 4.104645 163.706380 -6.470290 -0.883115 3.270361 6.018526 0.708046 0.118096 0.252586 -0.001837 0.214806 0.424086 -0.015678 2.842050 5.791862 -0.006727 2.517855 18.882271 0.525269 4.427022 -0.708345 0.197191 3.367617 6.865193 0.863251 -7.510558 -13.295955 -6.952564 -40.061789 -76.764904 60.995650 -0.989757 2.351359 -30.114962 -5.754082 3.703048 0.066541 22.162175 -6.121375 0.554680 60.646827 -78.041236 -80.674767 0.423577 8.735096 13.371207 -3.766332 -73.940008 0.453012 -114.922131 82.028387 -114.043871 -2.881459 -14.518164 0.736499 -0.232380 0.774207 -0.103005 -13.839742 -77.280997 30.040109 109.463277 78.737082 105.897190 -16.027444 -21.082914 -0.154102 -0.379115 -0.980217 -0.152140
-39.387384 50.689376 4.105142 163.706489 -6.479904 -0.897162 3.273102 6.022674 0.718935 0.119966 0.249225 -0.002100 0.213005 0.428993 -0.014077 2.852961 5.785152 -0.020183 2.516194 18.890006 0.535228 4.433254 -0.701788 0.195927 3.356325 6.866278 0.873087 -7.508239 -13.297771 -6.949522 -40.028523 -76.763285 60.980881 -0.998024 2.350711 -30.122285 -5.768348 3.713246 0.078469 22.166626 -6.122730 0.537836 60.557913 -78.050951 -80.589262 0.425787 8.734280 13.363538 -3.847826 -73.927324 0.528645 -114.906841 82.031770 -114.030572 -2.869436 -14.513665 0.729468 -0.239708 0.770336 -0.106252 -13.899969 -77.267243 30.100796 109.473660 78.736304 105.902586 -15.998770 -21.093343 -0.162123 -0.354458 -0.972218 -0.148653
-39.387697 50.690460 4.105042 163.705273 -6.490446 -0.901227 3.277473 6.027207 0.719205 0.118570 0.249856 -0.003149 0.212592 0.431733 -0.011145 2.856643 5.784377 -0.023144 2.517337 18.891235 0.533118 4.436978 -0.696142 0.196880 3.351900 6.848212 0.863056 -7.505891 -13.283222 -6.941501 -40.005170 -76.761833 60.971642 -1.004165 2.347400 -30.132012 -5.772577 3.715415 0.081027 22.167534 -6.121102 0.530688 60.515006 -78.056762 -80.549239 0.436298 8.750196 13.363507 -3.868385 -73.914658 0.545684 -114.900960 82.035304 -114.018276 -2.869639 -14.514435 0.718476 -0.235530 0.771010 -0.103815 -13.922836 -77.252369 30.124771 109.487080 78.738521 105.910202 -15.992571 -21.100011 -0.162450 -0.352284 -0.972488 -0.151762
-39.387421 50.691424 4.105321 163.703800 -6.499428 -0.908612 3.282861 6.028373 0.722374 0.119830 0.251185 -0.002502 0.213847 0.428349 -0.015202 2.853765 5.792143 -0.015972 2.518938 18.890582 0.526183 4.440470 -0.693823 0.196118 3.348717 6.841120 0.855482 -7.504146 -13.276748 -6.935339 -39.989949 -76.765815 60.973604 -1.004675 2.351755 -30.135017 -5.773704 3.716248 0.081870 22.165693 -6.117655 0.522103 60.485081 -78.063005 -80.522413 0.434127 8.747475 13.367204 -3.902252 -73.903407 0.574832 -114.875117 82.033253 -113.986339 -2.857092 -14.512445 0.710428 -0.235816 0.769542 -0.105913 -13.971289 -77.237696 30.175757 109.500568 78.739371 105.915895 -15.988227 -21.104848 -0.165007 -0.350144 -0.969796 -0.149783
-39.386813 50.692306 4.105374 163.703392 -6.509697 -0.916865 3.285061 6.035233 0.729514 0.122277 0.243260 -0.008905 0.211098 0.437984 -0.008165 2.855598 5.791662 -0.021878 2.521886 18.890317 0.526946 4.445189 -0.693083 0.179737 3.347125 6.836704 0.855763 -7.494618 -13.281902 -6.934192 -39.966990 -76.763088 60.961219 -1.003900 2.356014 -30.131932 -5.777087 3.718084 0.086352 22.164542 -6.115847 0.515063 60.447333 -78.069176 -80.488574 0.432197 8.751031 13.362455 -3.933666 -73.891918 0.605587 -114.871973 82.034928 -113.981080 -2.853968 -14.507357 0.712025 -0.239417 0.766130 -0.109806 -14.022166 -77.220950 30.225601 109.504568 78.739408 105.913190 -15.973954 -21.109764 -0.172935 -0.334731 -0.969692 -0.145371
-39.389820 50.692945 4.104721 163.708947 -6.517169 -0.903012 3.278999 6.040446 0.714188 0.122365 0.243699 -0.009584 0.212684 0.435131 -0.009328 2.860386 5.793319 -0.026265 2.519103 18.892994 0.533694 4.445158 -0.695367 0.168908 3.340565 6.831800 0.853217 -7.472820 -13.298698 -6.938909 -39.937276 -76.746027 60.927258 -0.985139 2.354720 -30.116492 -5.778244 3.711149 0.096494 22.156912 -6.103854 0.509663 60.420730 -78.076434 -80.462770 0.430164 8.761591 13.334914 -3.893480 -73.885682 0.554839 -114.897691 82.037978 -114.004007 -2.861916 -14.514775 0.709725 -0.231800 0.771584 -0.108846 -13.958482 -77.216068 30.158065 109.500568 78.742631 105.912952 -16.031596 -21.102461 -0.162517 -0.370472 -0.980069 -0.152080
-39.389033 50.693740 4.102879 163.705999 -6.537536 -0.906998 3.284559 6.052914 0.710775 0.121492 0.248853 -0.003014 0.213942 0.432934 -0.012355 2.863652 5.794298 -0.031294 2.518769 18.892480 0.533308 4.443233 -0.697578 0.167416 3.335662 6.824669 0.850868 -7.467919 -13.296952 -6.932873 -39.923270 -76.746766 60.918868 -0.988092 2.357932 -30.121343 -5.780469 3.712205 0.108653 22.153788 -6.099852 0.505076 60.394655 -78.080530 -80.439591 0.431525 8.764166 13.321679 -3.931827 -73.865311 0.590816 -114.932268 82.041714 -114.041738 -2.858165 -14.515062 0.708020 -0.235591 0.768172 -0.113129 -13.945257 -77.193498 30.147039 109.496173 78.731580 105.906037 -16.018845 -21.109895 -0.164580 -0.368382 -0.981684 -0.155147
-39.389036 50.694189 4.102913 163.708191 -6.545326 -0.909139 3.283651 6.059180 0.709896 0.120489 0.247616 -0.003769 0.214416 0.433507 -0.012298 2.868343 5.797406 -0.029563 2.516398 18.890390 0.529193 4.440561 -0.704026 0.160004 3.329445 6.815966 0.844169 -7.462831 -13.297450 -6.931416 -39.906776 -76.745061 60.906124 -0.989194 2.357364 -30.124785 -5.782907 3.706776 0.112527 22.148257 -6.094623 0.504101 60.365170 -78.071515 -80.435058 0.428032 8.758065 13.332117 -3.950190 -73.855862 0.606703 -114.928194 82.042688 -114.039061 -2.855352 -14.518271 0.706250 -0.238030 0.771014 -0.112584 -13.958515 -77.185224 30.158475 109.485940 78.724107 105.896293 -16.040067 -21.102429 -0.162255 -0.357132 -0.988445 -0.156978
-39.388363 50.694369 4.104866 163.713152 -6.543043 -0.917652 3.279134 6.055222 0.712350 0.123066 0.247926 -0.002897 0.213752 0.433999 -0.018142 2.872329 5.805568 -0.028918 2.514116 18.881647 0.521797 4.440252 -0.712652 0.162231 3.324823 6.799300 0.845169 -7.460237 -13.292642 -6.927836 -39.877096 -76.756228 60.883003 -0.963404 2.360377 -30.099434 -5.783650 3.690765 0.122361 22.141955 -6.086370 0.508269 60.364109 -78.066339 -80.447999 0.427706 8.756386 13.327567 -3.988715 -73.856294 0.641130 -114.918197 82.046089 -114.024960 -2.858519 -14.519900 0.699381 -0.236479 0.773338 -0.109881 -14.010102 -77.189201 30.208726 109.476812 78.719814 105.887841 -16.047305 -21.081657 -0.171345 -0.359260 -1.001517 -0.151042
-39.388120 50.694440 4.107186 163.717687 -6.538004 -0.923406 3.275034 6.048470 0.711088 0.122471 0.247663 -0.007195 0.215293 0.435461 -0.012303 2.873551 5.809827 -0.029433 2.513478 18.877549 0.518304 4.439957 -0.718795 0.159483 3.324243 6.787980 0.842514 -7.459607 -13.288329 -6.925743 -39.839159 -76.771392 60.853516 -0.968331 2.363744 -30.094770 -5.783261 3.681606 0.127946 22.135869 -6.080434 0.510149 60.367868 -78.060209 -80.464448 0.424392 8.754853 13.333307 -4.013907 -73.860468 0.663022 -114.904915 82.048257 -114.009386 -2.857803 -14.519267 0.696748 -0.237602 0.774038 -0.110199 -14.035011 -77.196093 30.232202 109.454149 78.717629 105.868582 -16.052350 -21.069376 -0.177364 -0.352579 -1.004556 -0.147504
